<svg width="3784" height="1060" viewBox="0 0 3784 1060" fill="none" xmlns="http://www.w3.org/2000/svg">
<path d="M1313.97 713.768C1294.67 713.768 1277.25 709.06 1261.71 699.644C1246.64 690.228 1234.64 676.81 1225.69 659.39C1216.75 641.97 1212.28 621.255 1212.28 597.243V402.329H1150.83V352.894H1177.67C1191.79 352.894 1202.39 349.363 1209.45 342.301C1216.98 335.239 1220.75 324.646 1220.75 310.522V258.262H1267.36V351.482H1348.57V402.329H1267.36V595.831C1267.36 617.959 1272.3 634.437 1282.19 645.266C1292.55 656.094 1306.67 661.509 1324.56 661.509C1333.04 661.509 1341.04 660.096 1348.57 657.271V707.412C1344.34 708.825 1339.39 710.237 1333.74 711.65C1328.09 713.062 1321.5 713.768 1313.97 713.768ZM1561.38 713.768C1531.25 713.768 1503 705.765 1476.64 689.757C1450.74 673.279 1430.26 651.151 1415.19 623.373C1400.13 595.125 1392.6 563.581 1392.6 528.741C1392.6 494.372 1400.13 463.063 1415.19 434.815C1430.26 406.566 1450.74 384.438 1476.64 368.431C1503 352.424 1531.25 344.42 1561.38 344.42C1591.98 344.42 1620.23 352.424 1646.13 368.431C1672.49 384.438 1693.21 406.566 1708.27 434.815C1723.34 463.063 1730.87 494.372 1730.87 528.741C1730.87 563.581 1723.34 595.125 1708.27 623.373C1693.21 651.151 1672.49 673.279 1646.13 689.757C1620.23 705.765 1591.98 713.768 1561.38 713.768ZM1561.38 662.215C1582.1 662.215 1601.16 656.565 1618.58 645.266C1636.47 633.966 1650.36 618.194 1660.25 597.95C1670.61 577.705 1675.79 554.635 1675.79 528.741C1675.79 502.847 1670.61 479.777 1660.25 459.532C1650.36 439.288 1636.47 423.516 1618.58 412.216C1601.16 400.917 1582.1 395.267 1561.38 395.267C1540.67 395.267 1521.6 400.917 1504.18 412.216C1486.76 423.516 1472.87 439.288 1462.51 459.532C1452.62 479.777 1447.68 502.847 1447.68 528.741C1447.68 554.635 1452.62 577.705 1462.51 597.95C1472.87 618.194 1486.76 633.966 1504.18 645.266C1521.6 656.565 1540.67 662.215 1561.38 662.215ZM1952.4 840.18C1925.09 840.18 1900.61 835.237 1878.96 825.35C1857.77 815.934 1840.35 802.986 1826.7 786.508C1813.51 770.501 1804.57 752.375 1799.86 732.13H1854.94C1861.06 749.55 1872.6 763.439 1889.55 773.796C1906.5 784.154 1927.45 789.333 1952.4 789.333C1982.53 789.333 2006.78 780.388 2025.14 762.497C2043.5 745.077 2052.68 721.537 2052.68 691.876V640.322H2049.15C2044.91 646.914 2037.85 654.447 2027.97 662.921C2018.08 670.925 2005.6 678.222 1990.54 684.814C1975.94 690.934 1960.17 693.994 1943.22 693.994C1914.5 693.994 1887.9 686.461 1863.42 671.396C1838.94 655.859 1819.63 634.908 1805.51 608.543C1791.38 581.707 1784.32 552.046 1784.32 519.56C1784.32 486.604 1791.38 456.707 1805.51 429.871C1819.63 403.035 1838.94 382.084 1863.42 367.019C1887.9 351.953 1914.5 344.42 1943.22 344.42C1960.64 344.42 1976.65 347.48 1991.24 353.601C2006.31 359.721 2018.78 367.019 2028.67 375.493C2039.03 383.497 2046.33 390.794 2050.56 397.386H2054.1L2066.81 351.482H2107.77V691.17C2107.77 720.83 2101.18 746.725 2087.99 768.853C2075.28 791.452 2057.16 808.871 2033.62 821.112C2010.07 833.824 1983 840.18 1952.4 840.18ZM1946.05 643.147C1964.88 643.147 1982.3 637.733 1998.3 626.904C2014.78 616.076 2027.97 601.245 2037.85 582.413C2047.74 563.581 2052.68 542.63 2052.68 519.56C2052.68 495.549 2047.74 474.127 2037.85 455.295C2027.97 436.463 2014.78 421.868 1998.3 411.51C1982.3 400.681 1964.88 395.267 1946.05 395.267C1926.74 395.267 1908.85 400.681 1892.37 411.51C1875.89 421.868 1862.95 436.463 1853.53 455.295C1844.12 474.127 1839.41 495.549 1839.41 519.56C1839.41 542.63 1844.12 563.581 1853.53 582.413C1862.95 601.245 1875.89 616.076 1892.37 626.904C1908.85 637.733 1926.74 643.147 1946.05 643.147ZM2352.42 713.768C2321.35 713.768 2292.86 705.765 2266.97 689.757C2241.07 673.75 2220.59 651.857 2205.53 624.08C2190.93 596.302 2183.64 564.522 2183.64 528.741C2183.64 494.372 2191.17 463.063 2206.23 434.815C2221.3 406.566 2241.78 384.438 2267.67 368.431C2293.57 352.424 2321.82 344.42 2352.42 344.42C2382.55 344.42 2409.86 352.188 2434.34 367.725C2459.29 382.791 2478.83 403.742 2492.96 430.578C2507.08 456.943 2514.14 486.368 2514.14 518.854C2514.14 525.916 2513.91 532.507 2513.44 538.628C2512.97 544.278 2512.26 549.221 2511.32 553.458H2226.01V506.848H2476.71L2456.94 547.102C2458.35 542.394 2459.29 538.157 2459.76 534.391C2460.23 530.624 2460.47 526.622 2460.47 522.385C2460.47 498.374 2455.76 476.717 2446.35 457.414C2436.93 437.64 2423.98 422.338 2407.5 411.51C2391.03 400.681 2372.66 395.267 2352.42 395.267C2332.18 395.267 2313.11 400.917 2295.22 412.216C2277.33 423.516 2263.2 439.288 2252.84 459.532C2242.96 479.777 2238.01 502.847 2238.01 528.741C2238.01 555.577 2242.96 579.117 2252.84 599.362C2262.73 619.607 2276.38 635.379 2293.8 646.678C2311.22 657.507 2331.23 662.921 2353.83 662.921C2374.55 662.921 2392.44 658.684 2407.5 650.209C2423.04 641.264 2435.75 628.552 2445.64 612.074H2501.43C2494.37 630.906 2483.54 648.091 2468.94 663.627C2454.35 678.693 2436.93 690.934 2416.69 700.35C2396.91 709.296 2375.49 713.768 2352.42 713.768ZM2707.77 713.768C2688.47 713.768 2671.05 709.06 2655.51 699.644C2640.45 690.228 2628.44 676.81 2619.49 659.39C2610.55 641.97 2606.08 621.255 2606.08 597.243V402.329H2544.64V352.894H2571.47C2585.6 352.894 2596.19 349.363 2603.25 342.301C2610.78 335.239 2614.55 324.646 2614.55 310.522V258.262H2661.16V351.482H2742.38V402.329H2661.16V595.831C2661.16 617.959 2666.1 634.437 2675.99 645.266C2686.35 656.094 2700.47 661.509 2718.36 661.509C2726.84 661.509 2734.84 660.096 2742.38 657.271V707.412C2738.14 708.825 2733.19 710.237 2727.54 711.65C2721.9 713.062 2715.3 713.768 2707.77 713.768ZM2819.42 706V211.652H2874.51V397.386H2878.04C2883.22 389.382 2890.52 381.378 2899.93 373.375C2909.82 364.9 2921.59 358.073 2935.24 352.894C2948.9 347.245 2963.96 344.42 2980.44 344.42C3006.81 344.42 3030.58 350.776 3051.77 363.488C3073.42 376.199 3090.14 394.325 3101.91 417.866C3114.15 441.406 3120.27 468.713 3120.27 499.786V706H3065.19V501.199C3065.19 480.012 3061.18 461.416 3053.18 445.408C3045.18 429.401 3034.11 417.16 3019.99 408.685C3005.86 399.74 2989.62 395.267 2971.26 395.267C2952.43 395.267 2935.71 399.74 2921.12 408.685C2906.52 417.16 2894.99 429.401 2886.51 445.408C2878.51 461.416 2874.51 480.012 2874.51 501.199V706H2819.42ZM3361.39 713.768C3330.32 713.768 3301.83 705.765 3275.94 689.757C3250.05 673.75 3229.57 651.857 3214.5 624.08C3199.9 596.302 3192.61 564.522 3192.61 528.741C3192.61 494.372 3200.14 463.063 3215.21 434.815C3230.27 406.566 3250.75 384.438 3276.65 368.431C3302.54 352.424 3330.79 344.42 3361.39 344.42C3391.52 344.42 3418.83 352.188 3443.31 367.725C3468.26 382.791 3487.8 403.742 3501.93 430.578C3516.05 456.943 3523.11 486.368 3523.11 518.854C3523.11 525.916 3522.88 532.507 3522.41 538.628C3521.94 544.278 3521.23 549.221 3520.29 553.458H3234.98V506.848H3485.68L3465.91 547.102C3467.32 542.394 3468.26 538.157 3468.74 534.391C3469.21 530.624 3469.44 526.622 3469.44 522.385C3469.44 498.374 3464.73 476.717 3455.32 457.414C3445.9 437.64 3432.95 422.338 3416.48 411.51C3400 400.681 3381.64 395.267 3361.39 395.267C3341.15 395.267 3322.08 400.917 3304.19 412.216C3286.3 423.516 3272.17 439.288 3261.82 459.532C3251.93 479.777 3246.99 502.847 3246.99 528.741C3246.99 555.577 3251.93 579.117 3261.82 599.362C3271.7 619.607 3285.36 635.379 3302.78 646.678C3320.2 657.507 3340.21 662.921 3362.8 662.921C3383.52 662.921 3401.41 658.684 3416.48 650.209C3432.01 641.264 3444.72 628.552 3454.61 612.074H3510.4C3503.34 630.906 3492.51 648.091 3477.92 663.627C3463.32 678.693 3445.9 690.934 3425.66 700.35C3405.88 709.296 3384.46 713.768 3361.39 713.768ZM3599.35 706V351.482H3639.6L3652.31 397.386H3655.84C3664.79 384.674 3677.5 372.668 3693.98 361.369C3710.93 350.07 3729.29 344.42 3749.06 344.42C3753.77 344.42 3758.48 344.655 3763.19 345.126C3767.9 345.597 3772.13 346.303 3775.9 347.245V402.329C3768.37 400.446 3759.66 399.504 3749.77 399.504C3731.41 399.504 3714.93 403.742 3700.33 412.216C3685.74 420.22 3674.44 432.461 3666.44 448.939C3658.43 464.947 3654.43 483.779 3654.43 505.436V706H3599.35Z" fill="black"/>
<path d="M342.845 122.914V293.182M554.247 122.914V293.182M596.203 507.581L443.643 585.496C377.443 617.915 339.031 591.762 302.798 530.738" stroke="black" stroke-width="60" stroke-miterlimit="10" stroke-linecap="round" stroke-linejoin="round"/>
<path d="M737.864 229.215C788.892 249.594 829.32 290.023 849.7 341.051C864 376.858 869 422.043 869 512.414C869 602.786 864 647.971 849.7 683.778C829.32 734.806 788.892 775.235 737.864 795.614C684.494 809.914 699.5 856.414 699.5 966.414C699.5 987.914 687.608 986.854 665 966.414C555.5 867.414 511.5 814.914 410.5 814.914H332.5C242.129 814.914 196.943 809.915 161.136 795.614C110.108 775.235 69.6798 734.806 49.3004 683.778C35 647.971 30 602.786 30 512.414C30 422.043 35 376.858 49.3004 341.051C69.6798 290.023 110.108 249.594 161.136 229.215" stroke="black" stroke-width="60" stroke-linecap="round"/>
</svg>
