                <svg class="logo-svg" width="3776" height="1086" viewBox="0 0 3776 1086" fill="none" xmlns="http://www.w3.org/2000/svg">
                    <path d="M1305.97 713.768C1286.67 713.768 1269.25 709.06 1253.71 699.644C1238.64 690.228 1226.64 676.81 1217.69 659.39C1208.75 641.97 1204.28 621.255 1204.28 597.243V402.329H1142.83V352.894H1169.67C1183.79 352.894 1194.39 349.363 1201.45 342.301C1208.98 335.239 1212.75 324.646 1212.75 310.522V258.262H1259.36V351.482H1340.57V402.329H1259.36V595.831C1259.36 617.959 1264.3 634.437 1274.19 645.266C1284.55 656.094 1298.67 661.509 1316.56 661.509C1325.04 661.509 1333.04 660.096 1340.57 657.271V707.412C1336.34 708.825 1331.39 710.237 1325.74 711.65C1320.09 713.062 1313.5 713.768 1305.97 713.768ZM1553.38 713.768C1523.25 713.768 1495 705.765 1468.64 689.757C1442.74 673.279 1422.26 651.151 1407.19 623.373C1392.13 595.125 1384.6 563.581 1384.6 528.741C1384.6 494.372 1392.13 463.063 1407.19 434.815C1422.26 406.566 1442.74 384.438 1468.64 368.431C1495 352.424 1523.25 344.42 1553.38 344.42C1583.98 344.42 1612.23 352.424 1638.13 368.431C1664.49 384.438 1685.21 406.566 1700.27 434.815C1715.34 463.063 1722.87 494.372 1722.87 528.741C1722.87 563.581 1715.34 595.125 1700.27 623.373C1685.21 651.151 1664.49 673.279 1638.13 689.757C1612.23 705.765 1583.98 713.768 1553.38 713.768ZM1553.38 662.215C1574.1 662.215 1593.16 656.565 1610.58 645.266C1628.47 633.966 1642.36 618.194 1652.25 597.95C1662.61 577.705 1667.79 554.635 1667.79 528.741C1667.79 502.847 1662.61 479.777 1652.25 459.532C1642.36 439.288 1628.47 423.516 1610.58 412.216C1593.16 400.917 1574.1 395.267 1553.38 395.267C1532.67 395.267 1513.6 400.917 1496.18 412.216C1478.76 423.516 1464.87 439.288 1454.51 459.532C1444.62 479.777 1439.68 502.847 1439.68 528.741C1439.68 554.635 1444.62 577.705 1454.51 597.95C1464.87 618.194 1478.76 633.966 1496.18 645.266C1513.6 656.565 1532.67 662.215 1553.38 662.215ZM1944.4 840.18C1917.09 840.18 1892.61 835.237 1870.96 825.35C1849.77 815.934 1832.35 802.986 1818.7 786.508C1805.51 770.501 1796.57 752.375 1791.86 732.13H1846.94C1853.06 749.55 1864.6 763.439 1881.55 773.796C1898.5 784.154 1919.45 789.333 1944.4 789.333C1974.53 789.333 1998.78 780.388 2017.14 762.497C2035.5 745.077 2044.68 721.537 2044.68 691.876V640.322H2041.15C2036.91 646.914 2029.85 654.447 2019.97 662.921C2010.08 670.925 1997.6 678.222 1982.54 684.814C1967.94 690.934 1952.17 693.994 1935.22 693.994C1906.5 693.994 1879.9 686.461 1855.42 671.396C1830.94 655.859 1811.63 634.908 1797.51 608.543C1783.38 581.707 1776.32 552.046 1776.32 519.56C1776.32 486.604 1783.38 456.707 1797.51 429.871C1811.63 403.035 1830.94 382.084 1855.42 367.019C1879.9 351.953 1906.5 344.42 1935.22 344.42C1952.64 344.42 1968.65 347.48 1983.24 353.601C1998.31 359.721 2010.78 367.019 2020.67 375.493C2031.03 383.497 2038.33 390.794 2042.56 397.386H2046.1L2058.81 351.482H2099.77V691.17C2099.77 720.83 2093.18 746.725 2079.99 768.853C2067.28 791.452 2049.16 808.871 2025.62 821.112C2002.07 833.824 1975 840.18 1944.4 840.18ZM1938.05 643.147C1956.88 643.147 1974.3 637.733 1990.3 626.904C2006.78 616.076 2019.97 601.245 2029.85 582.413C2039.74 563.581 2044.68 542.63 2044.68 519.56C2044.68 495.549 2039.74 474.127 2029.85 455.295C2019.97 436.463 2006.78 421.868 1990.3 411.51C1974.3 400.681 1956.88 395.267 1938.05 395.267C1918.74 395.267 1900.85 400.917 1884.37 412.216C1867.89 423.516 1854.95 436.463 1845.53 455.295C1836.12 474.127 1831.41 495.549 1831.41 519.56C1831.41 542.63 1836.12 563.581 1845.53 582.413C1854.95 601.245 1867.89 616.076 1884.37 626.904C1900.85 637.733 1918.74 643.147 1938.05 643.147ZM2344.42 713.768C2313.35 713.768 2284.86 705.765 2258.97 689.757C2233.07 673.75 2212.59 651.857 2197.53 624.08C2182.93 596.302 2175.64 564.522 2175.64 528.741C2175.64 494.372 2183.17 463.063 2198.23 434.815C2222.27 406.566 2242.75 384.438 2268.65 368.431C2294.54 352.424 2322.79 344.42 2344.42 344.42C2383.52 344.42 2410.83 352.188 2435.31 367.725C2460.26 382.791 2479.8 403.742 2493.93 430.578C2508.05 456.943 2515.11 486.368 2515.11 518.854C2515.11 525.916 2514.88 532.507 2514.41 538.628C2513.94 544.278 2513.23 549.221 2512.29 553.458H2226.98V506.848H2477.68L2457.91 547.102C2459.32 542.394 2460.26 538.157 2460.74 534.391C2461.21 530.624 2461.44 526.622 2461.44 522.385C2461.44 498.374 2456.73 476.717 2447.32 457.414C2437.9 437.64 2424.95 422.338 2408.48 411.51C2392 400.681 2373.64 395.267 2353.39 395.267C2333.15 395.267 2314.08 400.917 2296.19 412.216C2278.3 423.516 2264.17 439.288 2253.82 459.532C2243.93 479.777 2238.99 502.847 2238.99 528.741C2238.99 555.577 2243.93 579.117 2253.82 599.362C2263.7 619.607 2277.36 635.379 2294.78 646.678C2312.2 657.507 2332.21 662.921 2354.8 662.921C2375.52 662.921 2393.41 658.684 2408.48 650.209C2424.01 641.264 2436.72 628.552 2446.61 612.074H2502.4C2495.34 630.906 2484.51 648.091 2469.92 663.627C2455.32 678.693 2437.9 690.934 2417.66 700.35C2397.88 709.296 2376.46 713.768 2353.39 713.768ZM2699.77 713.768C2680.47 713.768 2663.05 709.06 2647.51 699.644C2632.45 690.228 2620.44 676.81 2611.49 659.39C2602.55 641.97 2598.08 621.255 2598.08 597.243V402.329H2536.64V352.894H2563.47C2577.6 352.894 2588.19 349.363 2595.25 342.301C2602.78 335.239 2606.55 324.646 2606.55 310.522V258.262H2653.16V351.482H2734.38V402.329H2653.16V595.831C2653.16 617.959 2658.1 634.437 2667.99 645.266C2678.35 656.094 2692.47 661.509 2710.36 661.509C2718.84 661.509 2726.84 660.096 2734.38 657.271V707.412C2730.14 708.825 2725.19 710.237 2719.54 711.65C2713.9 713.062 2707.3 713.768 2699.77 713.768ZM2811.42 706V211.652H2866.51V397.386H2870.04C2875.22 389.382 2882.52 381.378 2891.93 373.375C2901.82 364.9 2913.59 358.073 2927.24 352.894C2940.9 347.245 2955.96 344.42 2972.44 344.42C2998.81 344.42 3022.58 350.776 3043.77 363.488C3065.42 376.199 3082.14 394.325 3093.91 417.866C3106.15 441.406 3112.27 468.713 3112.27 499.786V706H3057.19V501.199C3057.19 480.012 3053.18 461.416 3045.18 445.408C3037.18 429.401 3026.11 417.16 3011.99 408.685C2997.86 399.74 2981.62 395.267 2963.26 395.267C2944.43 395.267 2927.71 399.74 2913.12 408.685C2898.52 417.16 2886.99 429.401 2878.51 445.408C2870.51 461.416 2866.51 480.012 2866.51 501.199V706H2811.42ZM3353.39 713.768C3322.32 713.768 3293.83 705.765 3267.94 689.757C3242.05 673.75 3221.57 651.857 3206.5 624.08C3191.9 596.302 3184.61 564.522 3184.61 528.741C3184.61 494.372 3192.14 463.063 3207.21 434.815C3222.27 406.566 3242.75 384.438 3268.65 368.431C3294.54 352.424 3322.79 344.42 3353.39 344.42C3383.52 344.42 3410.83 352.188 3435.31 367.725C3460.26 382.791 3479.8 403.742 3493.93 430.578C3508.05 456.943 3515.11 486.368 3515.11 518.854C3515.11 525.916 3514.88 532.507 3514.41 538.628C3513.94 544.278 3513.23 549.221 3512.29 553.458H3226.98V506.848H3477.68L3457.91 547.102C3459.32 542.394 3460.26 538.157 3460.74 534.391C3461.21 530.624 3461.44 526.622 3461.44 522.385C3461.44 498.374 3456.73 476.717 3447.32 457.414C3437.9 437.64 3424.95 422.338 3408.48 411.51C3392 400.681 3373.64 395.267 3353.39 395.267C3333.15 395.267 3314.08 400.917 3296.19 412.216C3278.3 423.516 3264.17 439.288 3253.82 459.532C3243.93 479.777 3238.99 502.847 3238.99 528.741C3238.99 555.577 3243.93 579.117 3253.82 599.362C3263.7 619.607 3277.36 635.379 3294.78 646.678C3312.2 657.507 3332.21 662.921 3354.8 662.921C3375.52 662.921 3393.41 658.684 3408.48 650.209C3424.01 641.264 3436.72 628.552 3446.61 612.074H3502.4C3495.34 630.906 3484.51 648.091 3469.92 663.627C3455.32 678.693 3437.9 690.934 3417.66 700.35C3397.88 709.296 3376.46 713.768 3353.39 713.768ZM3591.35 706V351.482H3631.6L3644.31 397.386H3647.84C3656.79 384.674 3669.5 372.668 3685.98 361.369C3702.93 350.07 3721.29 344.42 3741.06 344.42C3745.77 344.42 3750.48 344.655 3755.19 345.126C3759.9 345.597 3764.13 346.303 3767.9 347.245V402.329C3760.37 400.446 3751.66 399.504 3741.77 399.504C3723.41 399.504 3706.93 403.742 3692.33 412.216C3677.74 420.22 3666.44 432.461 3658.44 448.939C3650.43 464.947 3646.43 483.779 3646.43 505.436V706H3591.35Z" fill="currentColor"/>
                    <path d="M732.317 213.169C800.425 213.169 856 268.472 856 336.852V680.384C856 748.491 800.697 804.067 732.317 804.067H701.806V1059.06L477.869 804.067H150.683C82.5754 804.067 27 748.764 27 680.384V336.852C27 268.745 82.303 213.169 150.683 213.169" stroke="currentColor" stroke-width="53" stroke-miterlimit="10" stroke-linecap="round" stroke-linejoin="round"/>
                    <path d="M334.845 117V287.268" stroke="currentColor" stroke-width="53" stroke-miterlimit="10" stroke-linecap="round" stroke-linejoin="round"/>
                    <path d="M546.247 117V287.268" stroke="currentColor" stroke-width="53" stroke-miterlimit="10" stroke-linecap="round" stroke-linejoin="round"/>
                    <path d="M588.203 501.667L435.643 579.581C369.443 612 331.031 585.847 294.798 524.823" stroke="currentColor" stroke-width="53" stroke-miterlimit="10" stroke-linecap="round" stroke-linejoin="round"/>
                </svg>