<svg width="3780" height="1060" viewBox="0 0 3780 1060" fill="none" xmlns="http://www.w3.org/2000/svg">
<path d="M1310.47 713.768C1291.17 713.768 1273.75 709.06 1258.21 699.644C1243.14 690.228 1231.14 676.81 1222.19 659.39C1213.25 641.97 1208.78 621.255 1208.78 597.243V402.329H1147.33V352.894H1174.17C1188.29 352.894 1198.89 349.363 1205.95 342.301C1213.48 335.239 1217.25 324.646 1217.25 310.522V258.262H1263.86V351.482H1345.07V402.329H1263.86V595.831C1263.86 617.959 1268.8 634.437 1278.69 645.266C1289.05 656.094 1303.17 661.509 1321.06 661.509C1329.54 661.509 1337.54 660.096 1345.07 657.271V707.412C1340.84 708.825 1335.89 710.237 1330.24 711.65C1324.59 713.062 1318 713.768 1310.47 713.768ZM1557.88 713.768C1527.75 713.768 1499.5 705.765 1473.14 689.757C1447.24 673.279 1426.76 651.151 1411.69 623.373C1396.63 595.125 1389.1 563.581 1389.1 528.741C1389.1 494.372 1396.63 463.063 1411.69 434.815C1426.76 406.566 1447.24 384.438 1473.14 368.431C1499.5 352.424 1527.75 344.42 1557.88 344.42C1588.48 344.42 1616.73 352.424 1642.63 368.431C1668.99 384.438 1689.71 406.566 1704.77 434.815C1719.84 463.063 1727.37 494.372 1727.37 528.741C1727.37 563.581 1719.84 595.125 1704.77 623.373C1689.71 651.151 1668.99 673.279 1642.63 689.757C1616.73 705.765 1588.48 713.768 1557.88 713.768ZM1557.88 662.215C1578.6 662.215 1597.66 656.565 1615.08 645.266C1632.97 633.966 1646.86 618.194 1656.75 597.95C1667.11 577.705 1672.29 554.635 1672.29 528.741C1672.29 502.847 1667.11 479.777 1656.75 459.532C1646.86 439.288 1632.97 423.516 1615.08 412.216C1597.66 400.917 1578.6 395.267 1557.88 395.267C1537.17 395.267 1518.1 400.917 1500.68 412.216C1483.26 423.516 1469.37 439.288 1459.01 459.532C1449.12 479.777 1444.18 502.847 1444.18 528.741C1444.18 554.635 1449.12 577.705 1459.01 597.95C1469.37 618.194 1483.26 633.966 1500.68 645.266C1518.1 656.565 1537.17 662.215 1557.88 662.215ZM1948.9 840.18C1921.59 840.18 1897.11 835.237 1875.46 825.35C1854.27 815.934 1836.85 802.986 1823.2 786.508C1810.01 770.501 1801.07 752.375 1796.36 732.13H1851.44C1857.56 749.55 1869.1 763.439 1886.05 773.796C1903 784.154 1923.95 789.333 1948.9 789.333C1979.03 789.333 2003.28 780.388 2021.64 762.497C2040 745.077 2049.18 721.537 2049.18 691.876V640.322H2045.65C2041.41 646.914 2034.35 654.447 2024.47 662.921C2014.58 670.925 2002.1 678.222 1987.04 684.814C1972.44 690.934 1956.67 693.994 1939.72 693.994C1911 693.994 1884.4 686.461 1859.92 671.396C1835.44 655.859 1816.13 634.908 1802.01 608.543C1787.88 581.707 1780.82 552.046 1780.82 519.56C1780.82 486.604 1787.88 456.707 1802.01 429.871C1816.13 403.035 1835.44 382.084 1859.92 367.019C1884.4 351.953 1911 344.42 1939.72 344.42C1957.14 344.42 1973.15 347.48 1987.74 353.601C2002.81 359.721 2015.28 367.019 2025.17 375.493C2035.53 383.497 2042.83 390.794 2047.06 397.386H2050.6L2063.31 351.482H2104.27V691.17C2104.27 720.83 2097.68 746.725 2084.49 768.853C2071.78 791.452 2053.66 808.871 2030.12 821.112C2006.57 833.824 1979.5 840.18 1948.9 840.18ZM1942.55 643.147C1961.38 643.147 1978.8 637.733 1994.8 626.904C2011.28 616.076 2024.47 601.245 2034.35 582.413C2044.24 563.581 2049.18 542.63 2049.18 519.56C2049.18 495.549 2044.24 474.127 2034.35 455.295C2024.47 436.463 2011.28 421.868 1994.8 411.51C1978.8 400.681 1961.38 395.267 1942.55 395.267C1923.24 395.267 1905.35 400.681 1888.87 411.51C1872.39 421.868 1859.45 436.463 1850.03 455.295C1840.62 474.127 1835.91 495.549 1835.91 519.56C1835.91 542.63 1840.62 563.581 1850.03 582.413C1859.45 601.245 1872.39 616.076 1888.87 626.904C1905.35 637.733 1923.24 643.147 1942.55 643.147ZM2348.92 713.768C2317.85 713.768 2289.36 705.765 2263.47 689.757C2237.57 673.75 2217.09 651.857 2202.03 624.08C2187.43 596.302 2180.14 564.522 2180.14 528.741C2180.14 494.372 2187.67 463.063 2202.73 434.815C2217.8 406.566 2238.28 384.438 2264.17 368.431C2290.07 352.424 2318.32 344.42 2348.92 344.42C2379.05 344.42 2406.36 352.188 2430.84 367.725C2455.79 382.791 2475.33 403.742 2489.46 430.578C2503.58 456.943 2510.64 486.368 2510.64 518.854C2510.64 525.916 2510.41 532.507 2509.94 538.628C2509.47 544.278 2508.76 549.221 2507.82 553.458H2222.51V506.848H2473.21L2453.44 547.102C2454.85 542.394 2455.79 538.157 2456.26 534.391C2456.73 530.624 2456.97 526.622 2456.97 522.385C2456.97 498.374 2452.26 476.717 2442.85 457.414C2433.43 437.64 2420.48 422.338 2404 411.51C2387.53 400.681 2369.16 395.267 2348.92 395.267C2328.68 395.267 2309.61 400.917 2291.72 412.216C2273.83 423.516 2259.7 439.288 2249.34 459.532C2239.46 479.777 2234.51 502.847 2234.51 528.741C2234.51 555.577 2239.46 579.117 2249.34 599.362C2259.23 619.607 2272.88 635.379 2290.3 646.678C2307.72 657.507 2327.73 662.921 2350.33 662.921C2371.05 662.921 2388.94 658.684 2404 650.209C2419.54 641.264 2432.25 628.552 2442.14 612.074H2497.93C2490.87 630.906 2480.04 648.091 2465.44 663.627C2450.85 678.693 2433.43 690.934 2413.19 700.35C2393.41 709.296 2371.99 713.768 2348.92 713.768ZM2704.27 713.768C2684.97 713.768 2667.55 709.06 2652.01 699.644C2636.95 690.228 2624.94 676.81 2615.99 659.39C2607.05 641.97 2602.58 621.255 2602.58 597.243V402.329H2541.14V352.894H2567.97C2582.1 352.894 2592.69 349.363 2599.75 342.301C2607.28 335.239 2611.05 324.646 2611.05 310.522V258.262H2657.66V351.482H2738.88V402.329H2657.66V595.831C2657.66 617.959 2662.6 634.437 2672.49 645.266C2682.85 656.094 2696.97 661.509 2714.86 661.509C2723.34 661.509 2731.34 660.096 2738.88 657.271V707.412C2734.64 708.825 2729.69 710.237 2724.04 711.65C2718.4 713.062 2711.8 713.768 2704.27 713.768ZM2815.92 706V211.652H2871.01V397.386H2874.54C2879.72 389.382 2887.02 381.378 2896.43 373.375C2906.32 364.9 2918.09 358.073 2931.74 352.894C2945.4 347.245 2960.46 344.42 2976.94 344.42C3003.31 344.42 3027.08 350.776 3048.27 363.488C3069.92 376.199 3086.64 394.325 3098.41 417.866C3110.65 441.406 3116.77 468.713 3116.77 499.786V706H3061.69V501.199C3061.69 480.012 3057.68 461.416 3049.68 445.408C3041.68 429.401 3030.61 417.16 3016.49 408.685C3002.36 399.74 2986.12 395.267 2967.76 395.267C2948.93 395.267 2932.21 399.74 2917.62 408.685C2903.02 417.16 2891.49 429.401 2883.01 445.408C2875.01 461.416 2871.01 480.012 2871.01 501.199V706H2815.92ZM3357.89 713.768C3326.82 713.768 3298.33 705.765 3272.44 689.757C3246.55 673.75 3226.07 651.857 3211 624.08C3196.4 596.302 3189.11 564.522 3189.11 528.741C3189.11 494.372 3196.64 463.063 3211.71 434.815C3226.77 406.566 3247.25 384.438 3273.15 368.431C3299.04 352.424 3327.29 344.42 3357.89 344.42C3388.02 344.42 3415.33 352.188 3439.81 367.725C3464.76 382.791 3484.3 403.742 3498.43 430.578C3512.55 456.943 3519.61 486.368 3519.61 518.854C3519.61 525.916 3519.38 532.507 3518.91 538.628C3518.44 544.278 3517.73 549.221 3516.79 553.458H3231.48V506.848H3482.18L3462.41 547.102C3463.82 542.394 3464.76 538.157 3465.24 534.391C3465.71 530.624 3465.94 526.622 3465.94 522.385C3465.94 498.374 3461.23 476.717 3451.82 457.414C3442.4 437.64 3429.45 422.338 3412.98 411.51C3396.5 400.681 3378.14 395.267 3357.89 395.267C3337.65 395.267 3318.58 400.917 3300.69 412.216C3282.8 423.516 3268.67 439.288 3258.32 459.532C3248.43 479.777 3243.49 502.847 3243.49 528.741C3243.49 555.577 3248.43 579.117 3258.32 599.362C3268.2 619.607 3281.86 635.379 3299.28 646.678C3316.7 657.507 3336.71 662.921 3359.3 662.921C3380.02 662.921 3397.91 658.684 3412.98 650.209C3428.51 641.264 3441.22 628.552 3451.11 612.074H3506.9C3499.84 630.906 3489.01 648.091 3474.42 663.627C3459.82 678.693 3442.4 690.934 3422.16 700.35C3402.38 709.296 3380.96 713.768 3357.89 713.768ZM3595.85 706V351.482H3636.1L3648.81 397.386H3652.34C3661.29 384.674 3674 372.668 3690.48 361.369C3707.43 350.07 3725.79 344.42 3745.56 344.42C3750.27 344.42 3754.98 344.655 3759.69 345.126C3764.4 345.597 3768.63 346.303 3772.4 347.245V402.329C3764.87 400.446 3756.16 399.504 3746.27 399.504C3727.91 399.504 3711.43 403.742 3696.83 412.216C3682.24 420.22 3670.94 432.461 3662.94 448.939C3654.93 464.947 3650.93 483.779 3650.93 505.436V706H3595.85Z" fill="white"/>
<path d="M339.345 122.914V293.182M550.747 122.914V293.182M592.703 507.581L440.143 585.496C373.943 617.915 335.531 591.762 299.298 530.738" stroke="white" stroke-width="53" stroke-miterlimit="10" stroke-linecap="round" stroke-linejoin="round"/>
<path d="M734.364 229.215C785.392 249.594 825.82 290.023 846.2 341.051C860.5 376.858 865.5 422.043 865.5 512.414C865.5 602.786 860.5 647.971 846.2 683.778C825.82 734.806 785.392 775.235 734.364 795.614C680.994 809.914 696 856.414 696 966.414C696 987.914 684.108 986.854 661.5 966.414C552 867.414 508 814.914 407 814.914H329C238.629 814.914 193.443 809.915 157.636 795.614C106.608 775.235 66.1798 734.806 45.8004 683.778C31.5 647.971 26.5 602.786 26.5 512.414C26.5 422.043 31.5 376.858 45.8004 341.051C66.1798 290.023 106.608 249.594 157.636 229.215" stroke="white" stroke-width="53" stroke-linecap="round"/>
</svg>
